<svg xmlns="http://www.w3.org/2000/svg" width="40.473" height="40.473" viewBox="0 0 40.473 40.473"><g transform="translate(-1176.667 -6095.695)"><path d="M1196.9,6136.168h0a20.237,20.237,0,0,1-20.236-20.237h0a20.236,20.236,0,0,1,20.236-20.236h0a20.236,20.236,0,0,1,20.237,20.236h0A20.237,20.237,0,0,1,1196.9,6136.168Z" fill="#3e5c9a"/><path d="M1193.82,6128.163h4.926v-12.336h3.437l.366-4.13h-3.8v-2.353c0-.973.2-1.358,1.137-1.358h2.666V6103.7h-3.411c-3.666,0-5.318,1.615-5.318,4.7v3.293h-2.563v4.182h2.563Z" fill="#fff"/></g></svg>