<svg xmlns="http://www.w3.org/2000/svg" width="39.093" height="36.148" viewBox="0 0 39.093 36.148"><g transform="translate(-580.661 -1650.478)"><path d="M611.484,1640.736a12.157,12.157,0,0,0-8.276,3.334,12.16,12.16,0,0,0-8.278-3.334,11.149,11.149,0,0,0-11.269,11.269c0,3.537,1.457,6.957,4.584,10.764,2.728,3.321,6.526,6.753,11.591,11.236l2.552,2.541a1.162,1.162,0,0,0,1.639,0l2.552-2.542c5.065-4.481,8.862-7.912,11.592-11.235,3.127-3.807,4.583-7.227,4.583-10.764A11.149,11.149,0,0,0,611.484,1640.736Z" transform="translate(-3 9.742)" fill="#d1d1d1"/></g></svg>