<svg xmlns="http://www.w3.org/2000/svg" xmlns:xlink="http://www.w3.org/1999/xlink" width="40.473" height="40.473" viewBox="0 0 40.473 40.473"><defs><radialGradient id="a" cx="-0.025" cy="1.003" r="1.849" gradientTransform="translate(0)" gradientUnits="objectBoundingBox"><stop offset="0" stop-color="#f5ec53"/><stop offset="0.241" stop-color="#e48244"/><stop offset="0.397" stop-color="#d05667"/><stop offset="0.489" stop-color="#c84278"/><stop offset="1" stop-color="#192cfa"/></radialGradient></defs><g transform="translate(-1439.527 -6095.695)"><path d="M1459.764,6136.168h0a20.237,20.237,0,0,1-20.236-20.237h0a20.236,20.236,0,0,1,20.236-20.236h0A20.236,20.236,0,0,1,1480,6115.931h0A20.237,20.237,0,0,1,1459.764,6136.168Z" fill="url(#a)"/><path d="M1459.764,6106.835c2.962,0,3.313.011,4.483.064a6.129,6.129,0,0,1,2.061.383,3.667,3.667,0,0,1,2.1,2.1,6.133,6.133,0,0,1,.382,2.061c.054,1.17.065,1.52.065,4.483s-.011,3.314-.065,4.484a6.129,6.129,0,0,1-.382,2.06,3.676,3.676,0,0,1-2.1,2.106,6.14,6.14,0,0,1-2.061.382c-1.17.053-1.521.065-4.483.065s-3.314-.012-4.484-.065a6.126,6.126,0,0,1-2.06-.382,3.674,3.674,0,0,1-2.106-2.106,6.126,6.126,0,0,1-.382-2.06c-.054-1.17-.065-1.521-.065-4.484s.011-3.313.065-4.483a6.131,6.131,0,0,1,.382-2.061,3.665,3.665,0,0,1,2.106-2.1,6.116,6.116,0,0,1,2.06-.383c1.17-.053,1.521-.064,4.484-.064m0-2c-3.014,0-3.392.013-4.575.067a8.167,8.167,0,0,0-2.694.516,5.674,5.674,0,0,0-3.244,3.245,8.1,8.1,0,0,0-.516,2.693c-.054,1.184-.067,1.562-.067,4.575s.013,3.391.067,4.575a8.1,8.1,0,0,0,.516,2.693,5.664,5.664,0,0,0,3.244,3.245,8.129,8.129,0,0,0,2.694.516c1.183.054,1.561.067,4.575.067s3.391-.013,4.574-.067a8.128,8.128,0,0,0,2.694-.516,5.669,5.669,0,0,0,3.245-3.245,8.152,8.152,0,0,0,.516-2.693c.053-1.184.066-1.561.066-4.575s-.013-3.391-.066-4.575a8.149,8.149,0,0,0-.516-2.693,5.679,5.679,0,0,0-3.245-3.245,8.165,8.165,0,0,0-2.694-.516c-1.183-.054-1.561-.067-4.574-.067" fill="#fff"/><path d="M1459.764,6110.233a5.7,5.7,0,1,0,5.7,5.7,5.7,5.7,0,0,0-5.7-5.7m0,9.4a3.7,3.7,0,1,1,3.7-3.7,3.7,3.7,0,0,1-3.7,3.7" fill="#fff"/><path d="M1467.018,6110.008a1.331,1.331,0,1,1-1.331-1.331,1.332,1.332,0,0,1,1.331,1.331" fill="#fff"/></g></svg>