<svg xmlns="http://www.w3.org/2000/svg" width="40.473" height="40.473" viewBox="0 0 40.473 40.473"><g transform="translate(-1229.239 -6095.695)"><path d="M1249.475,6136.168h0a20.236,20.236,0,0,1-20.236-20.237h0a20.236,20.236,0,0,1,20.236-20.236h0a20.236,20.236,0,0,1,20.237,20.236h0A20.237,20.237,0,0,1,1249.475,6136.168Z" fill="#117bb8"/><rect width="4.188" height="13.53" transform="translate(1240.299 6111.42)" fill="#fff"/><path d="M1242.373,6109.648a2.5,2.5,0,1,0-2.477-2.5A2.487,2.487,0,0,0,1242.373,6109.648Z" fill="#fff"/><path d="M1251.182,6117.848c0-1.9.876-3.036,2.552-3.036,1.54,0,2.28,1.088,2.28,3.036v7.1h4.169v-8.566c0-3.625-2.055-5.377-4.923-5.377a4.719,4.719,0,0,0-4.078,2.236v-1.823h-4.017v13.53h4.017Z" fill="#fff"/></g></svg>