<svg xmlns="http://www.w3.org/2000/svg" width="40.473" height="40.473" viewBox="0 0 40.473 40.473"><g transform="translate(-1281.811 -6095.695)"><path d="M1302.047,6136.168h0a20.237,20.237,0,0,1-20.236-20.237h0a20.236,20.236,0,0,1,20.236-20.236h0a20.236,20.236,0,0,1,20.237,20.236h0A20.237,20.237,0,0,1,1302.047,6136.168Z" fill="#29a9e1"/><path d="M1291.265,6122.706a12.584,12.584,0,0,0,19.357-11.173,8.973,8.973,0,0,0,2.207-2.29,8.867,8.867,0,0,1-2.54.7,4.428,4.428,0,0,0,1.944-2.448,8.881,8.881,0,0,1-2.808,1.075,4.428,4.428,0,0,0-7.54,4.035,12.555,12.555,0,0,1-9.118-4.623,4.429,4.429,0,0,0,1.369,5.907,4.4,4.4,0,0,1-2.005-.554,4.432,4.432,0,0,0,3.549,4.4,4.426,4.426,0,0,1-2,.075,4.427,4.427,0,0,0,4.132,3.073A8.9,8.9,0,0,1,1291.265,6122.706Z" fill="#fff"/></g></svg>