<svg xmlns="http://www.w3.org/2000/svg" width="40.473" height="40.473" viewBox="0 0 40.473 40.473"><g transform="translate(-1386.955 -6095.695)"><path d="M1407.191,6136.168h0a20.237,20.237,0,0,1-20.236-20.237h0a20.236,20.236,0,0,1,20.236-20.236h0a20.236,20.236,0,0,1,20.237,20.236h0A20.237,20.237,0,0,1,1407.191,6136.168Z" fill="#57f676"/><path d="M1418.286,6115.37a10.9,10.9,0,0,0-21.781-.2c-.005.158-.01.316-.01.474a10.73,10.73,0,0,0,1.561,5.587l-1.964,5.8,6.036-1.918a10.912,10.912,0,0,0,16.163-9.47C1418.291,6115.553,1418.291,6115.462,1418.286,6115.37Zm-10.893,9.367a9.127,9.127,0,0,1-5.041-1.5l-3.52,1.123,1.142-3.378a9.009,9.009,0,0,1-1.744-5.332,8.586,8.586,0,0,1,.045-.882,9.167,9.167,0,0,1,18.251.173c.02.235.03.469.03.709A9.137,9.137,0,0,1,1407.393,6124.737Z" fill="#fff" fill-rule="evenodd"/><path d="M1412.388,6117.829c-.27-.132-1.582-.776-1.826-.862s-.424-.133-.6.132-.694.863-.847,1.036-.311.2-.581.066a7.209,7.209,0,0,1-2.148-1.316,7.909,7.909,0,0,1-1.485-1.832c-.153-.265-.015-.408.117-.54s.266-.312.4-.465c.036-.046.067-.086.1-.127a2.917,2.917,0,0,0,.169-.317.475.475,0,0,0-.021-.464c-.066-.132-.6-1.439-.826-1.969s-.444-.439-.6-.439-.332-.025-.51-.025a.988.988,0,0,0-.715.331,2.967,2.967,0,0,0-.933,2.214,3.391,3.391,0,0,0,.137.9,6.038,6.038,0,0,0,.955,1.836,10.96,10.96,0,0,0,4.561,4.006c2.719,1.056,2.719.7,3.209.658a2.662,2.662,0,0,0,1.8-1.261,2.183,2.183,0,0,0,.158-1.26C1412.832,6118.028,1412.653,6117.962,1412.388,6117.829Z" fill="#fff" fill-rule="evenodd"/></g></svg>