<svg xmlns="http://www.w3.org/2000/svg" width="40.473" height="40.473" viewBox="0 0 40.473 40.473"><g transform="translate(-1334.383 -6095.695)"><path d="M1354.619,6136.168h0a20.237,20.237,0,0,1-20.236-20.237h0a20.236,20.236,0,0,1,20.236-20.236h0a20.236,20.236,0,0,1,20.237,20.236h0A20.237,20.237,0,0,1,1354.619,6136.168Z" fill="#c3271a"/><path d="M1370.138,6108.084a4.068,4.068,0,0,0-2.863-2.882c-2.526-.682-12.656-.682-12.656-.682s-10.129,0-12.655.682a4.07,4.07,0,0,0-2.864,2.882,45.814,45.814,0,0,0,0,15.694,4.071,4.071,0,0,0,2.864,2.883c2.526.681,12.655.681,12.655.681s10.13,0,12.656-.681a4.069,4.069,0,0,0,2.863-2.883,45.814,45.814,0,0,0,0-15.694Z" fill="#fff"/><path d="M1351.307,6120.748v-9.633l8.466,4.816Z" fill="#c3271a"/></g></svg>